<svg xmlns="http://www.w3.org/2000/svg" xmlns:xlink="http://www.w3.org/1999/xlink" viewBox="0 0 32 32"><defs><linearGradient id="favicon-a" x1="0%" x2="100%" y1="100%" y2="0%"><stop offset="0%" stop-color="teal"></stop><stop offset="100%" stop-color="#13A1A1"></stop></linearGradient><path id="favicon-b" d="M11.59,21.84 L11.59,16.34 L14.79,16.34 L14.79,13.26 L11.59,13.26 L11.59,11.12 L14.89,11.12 L14.89,8 L8.25,8 L8.25,21.84 L11.59,21.84 Z M21.43,21.84 L21.43,11.12 L23.73,11.12 L23.73,8 L15.77,8 L15.77,11.12 L18.09,11.12 L18.09,21.84 L21.43,21.84 Z"></path><filter id="favicon-c" width="106.5%" height="107.2%" x="-3.2%" y="-3.6%" filterUnits="objectBoundingBox"></filter></defs><g fill="none" fill-rule="evenodd"><path fill="url(#favicon-a)" d="M4,0 L28,0 C30.209139,-4.05812251e-16 32,1.790861 32,4 L32,25.4437106 C32.0000045,27.0497285 31.0394562,28.5000214 29.5607358,29.1266632 C25.0404906,31.0422211 20.5202453,32 16,32 C11.4797508,32 6.95950167,31.0422194 2.43925251,29.1266582 C0.960543805,28.5000076 1.96679592e-16,27.049721 0,25.4437103 L0,4 C-2.705415e-16,1.790861 1.790861,4.05812251e-16 4,0 Z"></path><g fill-rule="nonzero"><use fill="#FEFAE0" xlink:href="#favicon-b"></use><use fill="#000" filter="url(#favicon-c)" xlink:href="#favicon-b"></use></g></g></svg>